<svg width="32" height="32" viewBox="0 0 32 32" fill="none" xmlns="http://www.w3.org/2000/svg">
<mask id="mask0_1021_208" style="mask-type:alpha" maskUnits="userSpaceOnUse" x="0" y="0" width="32" height="32">
<rect width="32" height="32" fill="#D9D9D9"/>
</mask>
<g mask="url(#mask0_1021_208)">
<circle opacity="0.2" cx="20" cy="23" r="6" fill="#F24141"/>
<path d="M22.04 16.55C21.62 16.96 21.38 17.55 21.44 18.18C21.53 19.26 22.52 20.05 23.6 20.05H25.5V21.24C25.5 23.31 23.81 25 21.74 25H11.63C11.94 24.74 12.21 24.42 12.42 24.06C12.79 23.46 13 22.75 13 22C13 19.79 11.21 18 9 18C8.06 18 7.19 18.33 6.5 18.88V14.51C6.5 12.44 8.18999 10.75 10.26 10.75H21.74C23.81 10.75 25.5 12.44 25.5 14.51V15.95H23.48C22.92 15.95 22.41 16.17 22.04 16.55Z" stroke="#666666" stroke-width="1.5" stroke-linecap="round" stroke-linejoin="round"/>
<path d="M6.5 15.4101V10.8401C6.5 9.6501 7.23 8.59006 8.34 8.17006L16.28 5.17006C17.52 4.70006 18.85 5.62009 18.85 6.95009V10.7501" stroke="#666666" stroke-width="1.5" stroke-linecap="round" stroke-linejoin="round"/>
<path d="M26.5588 16.9702V19.0302C26.5588 19.5802 26.1188 20.0302 25.5588 20.0502H23.5988C22.5188 20.0502 21.5288 19.2602 21.4388 18.1802C21.3788 17.5502 21.6188 16.9602 22.0388 16.5502C22.4088 16.1702 22.9188 15.9502 23.4788 15.9502H25.5588C26.1188 15.9702 26.5588 16.4202 26.5588 16.9702Z" stroke="#666666" stroke-width="1.5" stroke-linecap="round" stroke-linejoin="round"/>
<path d="M11 15H18" stroke="#666666" stroke-width="1.5" stroke-linecap="round" stroke-linejoin="round"/>
<path d="M13 22C13 22.75 12.79 23.46 12.42 24.06C12.21 24.42 11.94 24.74 11.63 25C10.93 25.63 10.01 26 9 26C7.54 26 6.27 25.22 5.58 24.06C5.21 23.46 5 22.75 5 22C5 20.74 5.58 19.61 6.5 18.88C7.19 18.33 8.06 18 9 18C11.21 18 13 19.79 13 22Z" stroke="#666666" stroke-width="1.5" stroke-miterlimit="10" stroke-linecap="round" stroke-linejoin="round"/>
<path d="M7.44141 21.9995L8.4314 22.9895L10.5614 21.0195" stroke="#666666" stroke-width="1.5" stroke-linecap="round" stroke-linejoin="round"/>
</g>
</svg>
