<svg xmlns="http://www.w3.org/2000/svg" width="30" height="25.969" viewBox="0 0 30 25.969">
  <metadata><?xpacket begin="﻿" id="W5M0MpCehiHzreSzNTczkc9d"?>
<x:xmpmeta xmlns:x="adobe:ns:meta/" x:xmptk="Adobe XMP Core 5.6-c142 79.160924, 2017/07/13-01:06:39        ">
   <rdf:RDF xmlns:rdf="http://www.w3.org/1999/02/22-rdf-syntax-ns#">
      <rdf:Description rdf:about=""/>
   </rdf:RDF>
</x:xmpmeta>
                                                                                                    
                                                                                                    
                                                                                                    
                                                                                                    
                                                                                                    
                                                                                                    
                                                                                                    
                                                                                                    
                                                                                                    
                                                                                                    
                                                                                                    
                                                                                                    
                                                                                                    
                                                                                                    
                                                                                                    
                                                                                                    
                                                                                                    
                                                                                                    
                                                                                                    
                                                                                                    
                           
<?xpacket end="w"?></metadata>
<defs>
    <style>
      .cls-1 {
        fill-rule: evenodd;
        opacity: 0.4;
      }
    </style>
  </defs>
  <path id="Forma_1_copy_5" data-name="Forma 1 copy 5" class="cls-1" d="M47.185,818.573H75.994a0.588,0.588,0,0,0,.592-0.583V799.142a0.589,0.589,0,0,0-.592-0.584H47.185a0.588,0.588,0,0,0-.592.584v18.847A0.587,0.587,0,0,0,47.185,818.573Zm0.592-18.848H75.4v17.682H47.777V799.725Zm19.976-2.332a0.588,0.588,0,0,0,.592-0.583v-3.643a0.589,0.589,0,0,0-.592-0.584H55.425a0.589,0.589,0,0,0-.592.584v3.643a0.592,0.592,0,0,0,1.184,0v-3.061H67.161v3.061A0.589,0.589,0,0,0,67.753,797.393Z" transform="translate(-46.594 -792.594)"/>
</svg>
