<svg width="16" height="16" viewBox="0 0 16 16" fill="none" xmlns="http://www.w3.org/2000/svg">
<path d="M5.53866 14H10.4613C12.935 14 13.378 12.9938 13.5072 11.7688L13.9687 6.76875C14.1349 5.24375 13.7041 4 11.0767 4H4.92333C2.29585 4 1.86512 5.24375 2.03126 6.76875L2.49276 11.7688C2.62198 12.9938 3.06502 14 5.53866 14Z" stroke="#C2C2C2" stroke-miterlimit="10" stroke-linecap="round" stroke-linejoin="round"/>
<path d="M6 4V3.6C6 2.715 6 2 7.6 2H8.4C10 2 10 2.715 10 3.6V4" stroke="#C2C2C2" stroke-miterlimit="10" stroke-linecap="round" stroke-linejoin="round"/>
<path d="M9 8.5V9C9 9.005 9 9.005 9 9.01C9 9.555 8.995 10 8 10C7.01 10 7 9.56 7 9.015V8.5C7 8 7 8 7.5 8H8.5C9 8 9 8 9 8.5Z" stroke="#C2C2C2" stroke-miterlimit="10" stroke-linecap="round" stroke-linejoin="round"/>
<path d="M14 7C12.4902 8.11258 10.7647 8.77483 9 9" stroke="#B2B2B2" stroke-miterlimit="10" stroke-linecap="round" stroke-linejoin="round"/>
<path d="M2 8C3.52439 8.55797 5.24526 8.89493 7 9" stroke="#B2B2B2" stroke-miterlimit="10" stroke-linecap="round" stroke-linejoin="round"/>
</svg>
